<svg width="500" height="500" viewBox="0 0 500 500" fill="none" xmlns="http://www.w3.org/2000/svg">
<path d="M448.485 188.476C454.032 208.03 457 228.668 457 250C457 374.264 356.264 475 232 475C209.159 475 187.113 471.596 166.342 465.269L448.485 188.476Z" fill="#F98C00"/>
<path d="M106.5 224.5C130.667 203.333 191.6 173.7 242 224.5C292.4 275.3 311 284.333 314 282.5L132.802 452.008C76.711 424.412 33.786 374.142 15.9854 313.157L106.5 224.5Z" fill="#186F7C"/>
<path d="M232 25C294.197 25 342.273 44.7075 383 85.5C353.076 99.9592 355.076 116.135 362 120L377.5 130.5L288.5 232.5L242 190.5C175.2 147.3 111.167 183.167 87.5 206.5L9.54883 283.975C7.87062 272.894 7 261.549 7 250C7 125.736 107.736 25 232 25Z" fill="#04465B"/>
<path d="M304.5 247.5L411.5 128C406.833 125.167 392.4 117.6 384 114C375.6 110.4 382.5 106.833 387 105.5C417.833 94.4999 481 71.9999 487 69.9999C493 67.9999 493.833 72.1666 493.5 74.4999C484.833 105.167 466.8 168.5 464 176.5C461.2 184.5 457.5 183.167 456 181.5L442.5 163C425.333 181.167 384.7 219.2 361.5 244C338.3 268.8 313.833 256.667 304.5 247.5Z" fill="#F98C00"/>
</svg>
